<svg xmlns="http://www.w3.org/2000/svg" xmlns:xlink="http://www.w3.org/1999/xlink" width="1366" zoomAndPan="magnify" viewBox="0 0 1024.5 576" height="768" preserveAspectRatio="xMidYMid meet" version="1.0"><defs><clipPath id="1fc33aa393"><path d="M 392 307 L 679 307 L 679 422.761719 L 392 422.761719 Z M 392 307 " clip-rule="nonzero"/></clipPath><clipPath id="5dc4548c7c"><path d="M 346.679688 248 L 633 248 L 633 365 L 346.679688 365 Z M 346.679688 248 " clip-rule="nonzero"/></clipPath><clipPath id="a4bc89a759"><path d="M 346.679688 248 L 633 248 L 633 322 L 346.679688 322 Z M 346.679688 248 " clip-rule="nonzero"/></clipPath><clipPath id="209fb41758"><path d="M 402 192.625 L 691 192.625 L 691 313 L 402 313 Z M 402 192.625 " clip-rule="nonzero"/></clipPath><clipPath id="96071e34ab"><path d="M 406 192.625 L 691 192.625 L 691 271 L 406 271 Z M 406 192.625 " clip-rule="nonzero"/></clipPath></defs><path fill="#ffffff" d="M 535.503906 314.671875 C 460.792969 314.671875 400.226562 327.789062 400.226562 343.96875 L 400.226562 386.125 C 400.226562 402.304688 460.792969 415.417969 535.503906 415.417969 C 610.21875 415.417969 670.785156 402.304688 670.785156 386.125 L 670.785156 343.96875 C 670.785156 327.789062 610.21875 314.671875 535.503906 314.671875 " fill-opacity="1" fill-rule="nonzero"/><path fill="#ffffff" d="M 429.367188 364.367188 C 429.066406 378.425781 428.765625 392.484375 428.464844 406.546875 C 437.796875 408.425781 447.574219 410.175781 457.777344 411.730469 C 468.953125 413.433594 479.714844 414.765625 490.015625 415.789062 C 490.289062 402.101562 490.5625 388.417969 490.832031 374.730469 C 481.644531 374.113281 471.613281 373.03125 460.90625 371.265625 C 449.367188 369.359375 438.820312 366.953125 429.367188 364.367188 " fill-opacity="1" fill-rule="nonzero"/><path fill="#ffffff" d="M 580.539062 375.152344 C 580.597656 388.566406 580.652344 401.980469 580.710938 415.390625 C 592.910156 415.035156 606.488281 413.90625 621.125 411.503906 C 629.34375 410.15625 637.074219 408.539062 644.289062 406.769531 C 643.558594 392.625 642.824219 378.480469 642.089844 364.332031 C 634.234375 366.699219 625.53125 368.925781 616.050781 370.757812 C 603.097656 373.261719 591.148438 374.566406 580.539062 375.152344 " fill-opacity="1" fill-rule="nonzero"/><g clip-path="url(#1fc33aa393)"><path fill="#1b191b" d="M 535.503906 307.324219 C 498.863281 307.324219 464.339844 310.429688 438.292969 316.070312 C 407.734375 322.6875 392.878906 331.8125 392.878906 343.96875 L 392.878906 386.125 C 392.878906 398.277344 407.734375 407.402344 438.292969 414.019531 C 464.339844 419.660156 498.863281 422.765625 535.503906 422.765625 C 572.144531 422.765625 606.667969 419.660156 632.714844 414.019531 C 663.273438 407.402344 678.132812 398.277344 678.132812 386.125 L 678.132812 343.96875 C 678.132812 331.8125 663.273438 322.6875 632.714844 316.070312 C 606.667969 310.429688 572.144531 307.324219 535.503906 307.324219 Z M 535.503906 314.671875 C 610.21875 314.671875 670.78125 327.789062 670.78125 343.96875 L 670.78125 386.125 C 670.78125 402.300781 610.21875 415.417969 535.503906 415.417969 C 460.792969 415.417969 400.226562 402.300781 400.226562 386.125 L 400.226562 343.96875 C 400.226562 327.789062 460.792969 314.671875 535.503906 314.671875 " fill-opacity="1" fill-rule="nonzero"/></g><path fill="#1b191b" d="M 427.300781 409.296875 C 425.289062 409.296875 423.648438 407.675781 423.628906 405.65625 C 423.558594 398.140625 423.660156 373.019531 424.027344 364.214844 C 424.109375 362.1875 425.847656 360.621094 427.851562 360.699219 C 429.878906 360.78125 431.453125 362.492188 431.371094 364.519531 C 431.007812 373.214844 430.90625 398.125 430.976562 405.589844 C 430.996094 407.617188 429.367188 409.277344 427.339844 409.296875 L 427.300781 409.296875 " fill-opacity="1" fill-rule="nonzero"/><path fill="#1b191b" d="M 643.707031 409.296875 L 643.667969 409.296875 C 641.644531 409.277344 640.011719 407.617188 640.03125 405.589844 C 640.101562 398.113281 639.996094 373.195312 639.640625 364.523438 C 639.554688 362.492188 641.128906 360.78125 643.15625 360.699219 C 645.183594 360.613281 646.898438 362.1875 646.984375 364.214844 C 647.34375 373 647.449219 398.128906 647.378906 405.65625 C 647.359375 407.675781 645.71875 409.296875 643.707031 409.296875 " fill-opacity="1" fill-rule="nonzero"/><path fill="#1b191b" d="M 491.773438 418.875 C 489.75 418.875 488.105469 417.242188 488.097656 415.21875 C 488.070312 407.734375 488.113281 382.691406 488.257812 373.890625 C 488.292969 371.882812 489.929688 370.277344 491.929688 370.277344 L 491.992188 370.277344 C 494.023438 370.308594 495.640625 371.980469 495.605469 374.011719 C 495.460938 382.773438 495.417969 407.726562 495.449219 415.1875 C 495.457031 417.21875 493.816406 418.867188 491.789062 418.875 L 491.773438 418.875 " fill-opacity="1" fill-rule="nonzero"/><path fill="#1b191b" d="M 579.234375 418.875 L 579.21875 418.875 C 577.191406 418.867188 575.554688 417.21875 575.5625 415.1875 C 575.589844 407.714844 575.546875 382.75 575.402344 374.011719 C 575.367188 371.980469 576.984375 370.308594 579.011719 370.277344 L 579.078125 370.277344 C 581.078125 370.277344 582.714844 371.878906 582.75 373.886719 C 582.894531 382.667969 582.9375 407.722656 582.910156 415.21875 C 582.902344 417.242188 581.257812 418.875 579.234375 418.875 " fill-opacity="1" fill-rule="nonzero"/><path fill="#ffffff" d="M 400.226562 343.96875 C 400.226562 360.148438 460.792969 373.261719 535.503906 373.261719 C 610.21875 373.261719 670.785156 360.148438 670.785156 343.96875 C 670.785156 327.789062 610.21875 314.671875 535.503906 314.671875 C 460.792969 314.671875 400.226562 327.789062 400.226562 343.96875 " fill-opacity="1" fill-rule="nonzero"/><path fill="#ffffff" d="M 444.25 357.402344 C 439.738281 359.542969 435.230469 361.683594 430.71875 363.824219 C 440.1875 366.003906 450.269531 368.03125 460.933594 369.800781 C 471.769531 371.597656 482.125 372.949219 491.933594 373.949219 C 494.675781 370.5 497.417969 367.050781 500.164062 363.601562 C 490.527344 363.167969 480.28125 362.382812 469.5 361.121094 C 460.640625 360.082031 452.210938 358.816406 444.25 357.402344 " fill-opacity="1" fill-rule="nonzero"/><path fill="#ffffff" d="M 571.75 363.488281 C 574.679688 366.679688 577.609375 369.875 580.539062 373.066406 C 591.875 372.4375 604.453125 371.078125 617.96875 368.558594 C 625.902344 367.078125 633.351562 365.351562 640.289062 363.488281 C 636.078125 361.375 631.871094 359.265625 627.664062 357.15625 C 619.820312 358.519531 611.585938 359.746094 602.976562 360.78125 C 592.046875 362.09375 581.613281 362.960938 571.75 363.488281 " fill-opacity="1" fill-rule="nonzero"/><path fill="#ffffff" d="M 627.664062 331.25 C 631.949219 329.257812 639.613281 326.367188 643.898438 324.375 C 647.539062 324.761719 654.347656 325.988281 661.371094 330.574219 C 666.738281 334.078125 670.144531 338.183594 672.082031 340.941406 C 665.5 341.355469 657.914062 341.769531 651.335938 342.183594 C 650.152344 340.261719 646.941406 337.5625 642.542969 335.535156 C 635.785156 332.414062 630.207031 331.273438 627.664062 331.25 " fill-opacity="1" fill-rule="nonzero"/><path fill="#d8758f" d="M 492.949219 314.0625 C 495.652344 317.21875 498.8125 321.304688 501.515625 324.460938 C 512.25 323.980469 525.507812 323.589844 537.195312 323.640625 C 547.910156 323.691406 559.191406 323.964844 569.097656 324.460938 C 572.03125 321.136719 575.523438 317.046875 578.453125 313.722656 C 565.546875 312.316406 550.261719 312.03125 536.347656 312.089844 C 522.316406 312.144531 506.1875 313.570312 492.949219 314.0625 " fill-opacity="1" fill-rule="nonzero"/><path fill="#d8758f" d="M 427.929688 324.9375 C 424.386719 325.214844 417.660156 326.214844 410.597656 330.519531 C 404.703125 334.109375 401.0625 338.492188 399.097656 341.253906 C 405.636719 341.648438 412.175781 342.042969 418.714844 342.4375 C 420.382812 340.386719 423.328125 337.28125 427.84375 334.746094 C 432.714844 332.011719 437.234375 331.160156 439.9375 330.855469 C 435.933594 328.882812 431.933594 326.910156 427.929688 324.9375 " fill-opacity="1" fill-rule="nonzero"/><path fill="#1b191b" d="M 535.503906 307.324219 C 498.863281 307.324219 464.339844 310.429688 438.292969 316.070312 C 407.734375 322.6875 392.878906 331.8125 392.878906 343.96875 C 392.878906 356.121094 407.734375 365.246094 438.292969 371.863281 C 464.339844 377.503906 498.863281 380.609375 535.503906 380.609375 C 572.144531 380.609375 606.667969 377.503906 632.714844 371.863281 C 663.273438 365.246094 678.132812 356.121094 678.132812 343.96875 C 678.132812 331.8125 663.273438 322.6875 632.714844 316.070312 C 606.667969 310.429688 572.144531 307.324219 535.503906 307.324219 Z M 535.503906 314.671875 C 610.21875 314.671875 670.78125 327.789062 670.78125 343.96875 C 670.78125 360.148438 610.21875 373.261719 535.503906 373.261719 C 460.792969 373.261719 400.226562 360.148438 400.226562 343.96875 C 400.226562 327.789062 460.792969 314.671875 535.503906 314.671875 " fill-opacity="1" fill-rule="nonzero"/><path fill="#1b191b" d="M 428.46875 366.203125 C 427.453125 366.203125 426.484375 365.613281 426.058594 364.621094 C 425.480469 363.289062 426.09375 361.746094 427.425781 361.167969 L 442.304688 354.746094 C 443.636719 354.171875 445.179688 354.785156 445.753906 356.113281 C 446.332031 357.445312 445.71875 358.988281 444.386719 359.566406 L 429.507812 365.988281 C 429.167969 366.136719 428.816406 366.203125 428.46875 366.203125 " fill-opacity="1" fill-rule="nonzero"/><path fill="#1b191b" d="M 642.539062 366.207031 C 642.195312 366.207031 641.839844 366.136719 641.5 365.988281 L 626.621094 359.566406 C 625.289062 358.992188 624.675781 357.445312 625.253906 356.113281 C 625.824219 354.785156 627.371094 354.171875 628.703125 354.746094 L 643.582031 361.171875 C 644.914062 361.746094 645.527344 363.289062 644.949219 364.621094 C 644.523438 365.613281 643.554688 366.207031 642.539062 366.207031 " fill-opacity="1" fill-rule="nonzero"/><path fill="#1b191b" d="M 578.457031 375.902344 C 577.730469 375.902344 577.007812 375.605469 576.488281 375.015625 C 575.699219 374.121094 574.308594 372.703125 572.839844 371.207031 C 570.960938 369.292969 568.835938 367.125 567.140625 365.21875 C 566.171875 364.136719 566.269531 362.476562 567.351562 361.511719 C 568.433594 360.550781 570.09375 360.644531 571.058594 361.726562 C 572.675781 363.539062 574.753906 365.660156 576.585938 367.53125 C 578.171875 369.148438 579.542969 370.542969 580.421875 371.542969 C 581.382812 372.628906 581.277344 374.289062 580.191406 375.246094 C 579.691406 375.6875 579.074219 375.902344 578.457031 375.902344 " fill-opacity="1" fill-rule="nonzero"/><path fill="#1b191b" d="M 492.554688 375.902344 C 491.933594 375.902344 491.316406 375.6875 490.816406 375.246094 C 489.730469 374.289062 489.625 372.628906 490.585938 371.542969 C 491.464844 370.542969 492.835938 369.144531 494.421875 367.53125 C 496.257812 365.65625 498.335938 363.539062 499.949219 361.726562 C 500.914062 360.644531 502.574219 360.550781 503.65625 361.511719 C 504.738281 362.476562 504.835938 364.136719 503.867188 365.21875 C 502.171875 367.125 500.046875 369.292969 498.171875 371.203125 C 496.699219 372.703125 495.3125 374.121094 494.523438 375.015625 C 494.003906 375.605469 493.28125 375.902344 492.554688 375.902344 " fill-opacity="1" fill-rule="nonzero"/><path fill="#1b191b" d="M 443.34375 333.402344 C 442.996094 333.402344 442.644531 333.335938 442.304688 333.1875 L 427.425781 326.761719 C 426.09375 326.1875 425.480469 324.644531 426.058594 323.316406 C 426.628906 321.980469 428.175781 321.371094 429.507812 321.945312 L 444.386719 328.371094 C 445.71875 328.945312 446.332031 330.488281 445.753906 331.820312 C 445.328125 332.808594 444.359375 333.402344 443.34375 333.402344 " fill-opacity="1" fill-rule="nonzero"/><path fill="#1b191b" d="M 627.664062 333.402344 C 626.648438 333.402344 625.679688 332.8125 625.253906 331.820312 C 624.675781 330.488281 625.289062 328.945312 626.621094 328.371094 L 641.5 321.945312 C 642.832031 321.375 644.378906 321.984375 644.949219 323.316406 C 645.527344 324.644531 644.914062 326.191406 643.582031 326.765625 L 628.703125 333.191406 C 628.363281 333.335938 628.011719 333.402344 627.664062 333.402344 " fill-opacity="1" fill-rule="nonzero"/><path fill="#1b191b" d="M 569.097656 327.085938 C 568.476562 327.085938 567.851562 326.867188 567.351562 326.417969 C 566.269531 325.457031 566.171875 323.796875 567.140625 322.714844 C 568.835938 320.808594 570.964844 318.640625 572.84375 316.726562 C 574.3125 315.230469 575.699219 313.8125 576.488281 312.917969 C 577.445312 311.832031 579.105469 311.730469 580.191406 312.6875 C 581.277344 313.648438 581.382812 315.304688 580.421875 316.390625 C 579.542969 317.390625 578.175781 318.785156 576.589844 320.398438 C 574.753906 322.269531 572.675781 324.394531 571.058594 326.207031 C 570.539062 326.789062 569.820312 327.085938 569.097656 327.085938 " fill-opacity="1" fill-rule="nonzero"/><path fill="#1b191b" d="M 501.910156 327.085938 C 501.1875 327.085938 500.46875 326.789062 499.949219 326.207031 C 498.335938 324.394531 496.253906 322.273438 494.417969 320.402344 C 492.835938 318.785156 491.464844 317.390625 490.585938 316.390625 C 489.625 315.304688 489.730469 313.648438 490.816406 312.6875 C 491.902344 311.730469 493.5625 311.832031 494.523438 312.921875 C 495.308594 313.8125 496.699219 315.230469 498.167969 316.726562 C 500.042969 318.640625 502.171875 320.808594 503.867188 322.71875 C 504.835938 323.796875 504.738281 325.457031 503.65625 326.421875 C 503.15625 326.867188 502.53125 327.085938 501.910156 327.085938 " fill-opacity="1" fill-rule="nonzero"/><path fill="#1b191b" d="M 419.671875 345.578125 L 419.609375 345.578125 L 399.148438 345.066406 C 397.699219 345.03125 396.550781 343.828125 396.589844 342.382812 C 396.625 340.929688 397.804688 339.769531 399.277344 339.824219 L 419.738281 340.328125 C 421.1875 340.367188 422.332031 341.570312 422.296875 343.019531 C 422.261719 344.445312 421.09375 345.578125 419.671875 345.578125 " fill-opacity="1" fill-rule="nonzero"/><path fill="#1b191b" d="M 651.335938 346.625 C 649.347656 346.625 647.710938 345.039062 647.664062 343.042969 C 647.613281 341.015625 649.21875 339.328125 651.246094 339.277344 L 671.707031 338.773438 C 673.710938 338.726562 675.421875 340.324219 675.472656 342.351562 C 675.519531 344.382812 673.917969 346.066406 671.890625 346.117188 L 651.425781 346.625 L 651.335938 346.625 " fill-opacity="1" fill-rule="nonzero"/><path fill="#ffffff" d="M 422.039062 343.96875 C 422.039062 353.675781 472.839844 361.550781 535.503906 361.550781 C 598.167969 361.550781 648.96875 353.675781 648.96875 343.96875 C 648.96875 334.253906 598.167969 326.382812 535.503906 326.382812 C 472.839844 326.382812 422.039062 334.253906 422.039062 343.96875 " fill-opacity="1" fill-rule="nonzero"/><path fill="#1b191b" d="M 535.503906 319.035156 C 504.832031 319.035156 475.9375 320.894531 454.144531 324.273438 C 443.25 325.960938 434.59375 327.964844 428.425781 330.222656 C 425.027344 331.46875 414.6875 335.257812 414.6875 343.96875 C 414.6875 352.679688 425.027344 356.464844 428.425781 357.710938 C 434.59375 359.96875 443.25 361.972656 454.144531 363.660156 C 475.9375 367.039062 504.832031 368.898438 535.503906 368.898438 C 566.175781 368.898438 595.070312 367.039062 616.863281 363.660156 C 627.761719 361.972656 636.414062 359.96875 642.578125 357.710938 C 645.980469 356.464844 656.320312 352.679688 656.320312 343.96875 C 656.320312 335.257812 645.980469 331.46875 642.578125 330.222656 C 636.414062 327.964844 627.761719 325.960938 616.863281 324.273438 C 595.070312 320.894531 566.175781 319.035156 535.503906 319.035156 Z M 535.503906 326.382812 C 598.167969 326.382812 648.96875 334.253906 648.96875 343.96875 C 648.96875 353.675781 598.167969 361.550781 535.503906 361.550781 C 472.839844 361.550781 422.039062 353.675781 422.039062 343.96875 C 422.039062 334.253906 472.839844 326.382812 535.503906 326.382812 " fill-opacity="1" fill-rule="nonzero"/><path fill="#ffffff" d="M 489.570312 256.042969 C 414.859375 256.042969 354.292969 269.160156 354.292969 285.339844 L 354.292969 327.492188 C 354.292969 343.671875 414.859375 356.789062 489.570312 356.789062 C 564.285156 356.789062 624.851562 343.671875 624.851562 327.492188 L 624.851562 285.339844 C 624.851562 269.160156 564.285156 256.042969 489.570312 256.042969 " fill-opacity="1" fill-rule="nonzero"/><path fill="#ffffff" d="M 383.433594 305.738281 C 383.132812 319.796875 382.832031 333.859375 382.53125 347.917969 C 391.863281 349.796875 401.640625 351.546875 411.84375 353.101562 C 423.019531 354.804688 433.785156 356.136719 444.082031 357.160156 C 444.355469 343.472656 444.628906 329.789062 444.902344 316.101562 C 435.714844 315.484375 425.683594 314.402344 414.96875 312.636719 C 403.433594 310.730469 392.890625 308.324219 383.433594 305.738281 " fill-opacity="1" fill-rule="nonzero"/><path fill="#1b191b" d="M 489.570312 250.792969 C 453.074219 250.792969 418.707031 253.882812 392.804688 259.492188 C 363.359375 265.871094 349.042969 274.324219 349.042969 285.339844 C 349.042969 296.351562 363.359375 304.804688 392.804688 311.183594 C 418.707031 316.792969 453.074219 319.882812 489.570312 319.882812 C 526.066406 319.882812 560.433594 316.792969 586.335938 311.183594 C 615.785156 304.804688 630.097656 296.351562 630.097656 285.339844 C 630.097656 274.324219 615.785156 265.871094 586.335938 259.492188 C 560.433594 253.882812 526.066406 250.792969 489.570312 250.792969 Z M 489.570312 256.042969 C 564.285156 256.042969 624.851562 269.160156 624.851562 285.339844 C 624.851562 301.515625 564.285156 314.632812 489.570312 314.632812 C 414.859375 314.632812 354.292969 301.515625 354.292969 285.339844 C 354.292969 269.160156 414.859375 256.042969 489.570312 256.042969 " fill-opacity="1" fill-rule="nonzero"/><path fill="#ffffff" d="M 534.605469 316.523438 C 534.664062 329.9375 534.722656 343.351562 534.777344 356.765625 C 546.972656 356.40625 560.550781 355.277344 575.191406 352.875 C 583.410156 351.527344 591.140625 349.910156 598.355469 348.140625 C 597.625 333.996094 596.890625 319.847656 596.15625 305.703125 C 588.296875 308.074219 579.597656 310.296875 570.117188 312.128906 C 557.164062 314.632812 545.214844 315.9375 534.605469 316.523438 " fill-opacity="1" fill-rule="nonzero"/><g clip-path="url(#5dc4548c7c)"><path fill="#1b191b" d="M 489.570312 248.695312 C 452.929688 248.695312 418.40625 251.800781 392.359375 257.441406 C 361.800781 264.058594 346.945312 273.183594 346.945312 285.339844 L 346.945312 327.492188 C 346.945312 339.648438 361.800781 348.773438 392.359375 355.390625 C 418.40625 361.03125 452.929688 364.136719 489.570312 364.136719 C 526.210938 364.136719 560.734375 361.03125 586.785156 355.390625 C 617.34375 348.773438 632.199219 339.648438 632.199219 327.492188 L 632.199219 285.339844 C 632.199219 273.183594 617.34375 264.058594 586.785156 257.441406 C 560.734375 251.800781 526.210938 248.695312 489.570312 248.695312 Z M 489.570312 256.042969 C 564.285156 256.042969 624.851562 269.160156 624.851562 285.339844 L 624.851562 327.492188 C 624.851562 343.671875 564.285156 356.789062 489.570312 356.789062 C 414.859375 356.789062 354.292969 343.671875 354.292969 327.492188 L 354.292969 285.339844 C 354.292969 269.160156 414.859375 256.042969 489.570312 256.042969 " fill-opacity="1" fill-rule="nonzero"/></g><path fill="#1b191b" d="M 381.367188 350.667969 C 379.355469 350.667969 377.714844 349.042969 377.695312 347.027344 C 377.625 339.496094 377.730469 314.359375 378.09375 305.585938 C 378.179688 303.558594 379.882812 301.988281 381.917969 302.066406 C 383.945312 302.15625 385.519531 303.863281 385.4375 305.894531 C 385.074219 314.558594 384.972656 339.480469 385.042969 346.960938 C 385.0625 348.988281 383.433594 350.648438 381.40625 350.667969 L 381.367188 350.667969 " fill-opacity="1" fill-rule="nonzero"/><path fill="#1b191b" d="M 597.773438 350.667969 L 597.738281 350.667969 C 595.710938 350.648438 594.078125 348.988281 594.097656 346.960938 C 594.167969 339.480469 594.066406 314.558594 593.707031 305.894531 C 593.621094 303.863281 595.195312 302.15625 597.222656 302.066406 C 599.222656 301.988281 600.964844 303.558594 601.046875 305.585938 C 601.414062 314.359375 601.519531 339.496094 601.449219 347.027344 C 601.425781 349.042969 599.785156 350.667969 597.773438 350.667969 " fill-opacity="1" fill-rule="nonzero"/><path fill="#1b191b" d="M 445.839844 360.25 C 443.816406 360.25 442.171875 358.613281 442.164062 356.589844 C 442.136719 349.070312 442.179688 323.996094 442.328125 315.257812 C 442.359375 313.230469 444.039062 311.566406 446.0625 311.648438 C 448.089844 311.679688 449.707031 313.355469 449.671875 315.382812 C 449.527344 324.078125 449.484375 349.0625 449.515625 356.558594 C 449.519531 358.589844 447.882812 360.242188 445.855469 360.25 L 445.839844 360.25 " fill-opacity="1" fill-rule="nonzero"/><path fill="#1b191b" d="M 533.300781 360.25 L 533.289062 360.25 C 531.257812 360.242188 529.621094 358.589844 529.628906 356.558594 C 529.65625 349.039062 529.617188 324.027344 529.46875 315.382812 C 529.433594 313.355469 531.050781 311.679688 533.078125 311.648438 L 533.144531 311.648438 C 535.144531 311.648438 536.78125 313.25 536.816406 315.257812 C 536.964844 323.945312 537.007812 349.042969 536.976562 356.589844 C 536.96875 358.613281 535.324219 360.25 533.300781 360.25 " fill-opacity="1" fill-rule="nonzero"/><path fill="#ffffff" d="M 354.292969 285.339844 C 354.292969 301.515625 414.859375 314.632812 489.570312 314.632812 C 564.285156 314.632812 624.851562 301.515625 624.851562 285.339844 C 624.851562 269.160156 564.285156 256.042969 489.570312 256.042969 C 414.859375 256.042969 354.292969 269.160156 354.292969 285.339844 " fill-opacity="1" fill-rule="nonzero"/><path fill="#1b191b" d="M 581.730469 274.773438 C 580.714844 274.773438 579.746094 274.179688 579.320312 273.191406 C 578.746094 271.859375 579.355469 270.3125 580.6875 269.738281 L 595.570312 263.316406 C 596.902344 262.746094 598.445312 263.355469 599.019531 264.683594 C 599.59375 266.015625 598.980469 267.558594 597.648438 268.132812 L 582.769531 274.558594 C 582.429688 274.707031 582.078125 274.773438 581.730469 274.773438 " fill-opacity="1" fill-rule="nonzero"/><path fill="#ffffff" d="M 381.996094 266.308594 C 378.449219 266.585938 371.726562 267.585938 364.664062 271.890625 C 358.773438 275.480469 355.128906 279.863281 353.167969 282.625 C 359.703125 283.019531 366.242188 283.414062 372.78125 283.808594 C 374.449219 281.757812 377.394531 278.652344 381.914062 276.117188 C 386.78125 273.378906 391.300781 272.53125 394.003906 272.226562 C 390 270.253906 386 268.28125 381.996094 266.308594 " fill-opacity="1" fill-rule="nonzero"/><path fill="#ffffff" d="M 447.015625 255.433594 C 449.71875 258.589844 452.875 262.675781 455.582031 265.832031 C 466.320312 265.351562 479.578125 264.960938 491.261719 265.015625 C 501.976562 265.0625 513.257812 265.335938 523.167969 265.832031 C 526.097656 262.507812 529.589844 258.421875 532.519531 255.09375 C 519.613281 253.6875 504.328125 253.40625 490.417969 253.460938 C 476.382812 253.515625 460.253906 254.9375 447.015625 255.433594 " fill-opacity="1" fill-rule="nonzero"/><path fill="#ffffff" d="M 581.726562 272.621094 C 586.011719 270.628906 593.679688 267.738281 597.960938 265.746094 C 601.605469 266.132812 608.414062 267.359375 615.433594 271.945312 C 620.804688 275.453125 624.207031 279.558594 626.144531 282.316406 C 619.566406 282.726562 611.980469 283.140625 605.402344 283.554688 C 604.21875 281.636719 601.007812 278.933594 596.609375 276.902344 C 589.851562 273.789062 584.273438 272.648438 581.726562 272.621094 " fill-opacity="1" fill-rule="nonzero"/><path fill="#ffffff" d="M 525.816406 304.859375 C 528.746094 308.050781 531.675781 311.246094 534.605469 314.441406 C 545.941406 313.808594 558.519531 312.453125 572.035156 309.929688 C 579.96875 308.453125 587.417969 306.722656 594.355469 304.859375 C 590.148438 302.746094 585.9375 300.636719 581.726562 298.527344 C 573.886719 299.890625 565.652344 301.117188 557.039062 302.15625 C 546.113281 303.464844 535.683594 304.332031 525.816406 304.859375 " fill-opacity="1" fill-rule="nonzero"/><path fill="#ffffff" d="M 398.316406 298.769531 C 393.804688 300.914062 389.296875 303.054688 384.789062 305.195312 C 394.253906 307.375 404.339844 309.402344 415 311.171875 C 425.835938 312.96875 436.191406 314.320312 446 315.320312 C 448.742188 311.871094 451.488281 308.421875 454.230469 304.972656 C 444.59375 304.539062 434.347656 303.753906 423.566406 302.492188 C 414.707031 301.457031 406.28125 300.1875 398.316406 298.769531 " fill-opacity="1" fill-rule="nonzero"/><g clip-path="url(#a4bc89a759)"><path fill="#1b191b" d="M 489.570312 248.695312 C 452.929688 248.695312 418.40625 251.800781 392.359375 257.441406 C 361.800781 264.058594 346.945312 273.183594 346.945312 285.339844 C 346.945312 297.492188 361.800781 306.617188 392.359375 313.234375 C 418.40625 318.875 452.929688 321.980469 489.570312 321.980469 C 526.210938 321.980469 560.734375 318.875 586.785156 313.234375 C 617.34375 306.617188 632.199219 297.492188 632.199219 285.339844 C 632.199219 273.183594 617.34375 264.058594 586.785156 257.441406 C 560.734375 251.800781 526.210938 248.695312 489.570312 248.695312 Z M 489.570312 256.042969 C 564.285156 256.042969 624.851562 269.160156 624.851562 285.339844 C 624.851562 301.515625 564.285156 314.632812 489.570312 314.632812 C 414.859375 314.632812 354.292969 301.515625 354.292969 285.339844 C 354.292969 269.160156 414.859375 256.042969 489.570312 256.042969 " fill-opacity="1" fill-rule="nonzero"/></g><path fill="#1b191b" d="M 382.53125 307.578125 C 381.519531 307.578125 380.550781 306.984375 380.121094 305.992188 C 379.546875 304.660156 380.160156 303.117188 381.492188 302.542969 L 396.371094 296.117188 C 397.703125 295.542969 399.25 296.15625 399.824219 297.484375 C 400.398438 298.816406 399.785156 300.363281 398.453125 300.9375 L 383.574219 307.359375 C 383.234375 307.507812 382.878906 307.578125 382.53125 307.578125 " fill-opacity="1" fill-rule="nonzero"/><path fill="#1b191b" d="M 596.609375 307.578125 C 596.261719 307.578125 595.910156 307.507812 595.570312 307.359375 L 580.6875 300.9375 C 579.355469 300.363281 578.746094 298.816406 579.320312 297.484375 C 579.894531 296.15625 581.4375 295.542969 582.769531 296.117188 L 597.648438 302.542969 C 598.980469 303.117188 599.59375 304.660156 599.019531 305.992188 C 598.59375 306.984375 597.625 307.578125 596.609375 307.578125 " fill-opacity="1" fill-rule="nonzero"/><path fill="#1b191b" d="M 532.523438 317.273438 C 531.796875 317.273438 531.074219 316.972656 530.554688 316.386719 C 529.765625 315.492188 528.378906 314.078125 526.910156 312.578125 C 525.03125 310.664062 522.90625 308.496094 521.207031 306.589844 C 520.242188 305.507812 520.335938 303.847656 521.417969 302.882812 C 522.5 301.917969 524.160156 302.015625 525.125 303.097656 C 526.742188 304.910156 528.824219 307.035156 530.660156 308.90625 C 532.242188 310.519531 533.609375 311.914062 534.488281 312.910156 C 535.449219 314 535.347656 315.65625 534.261719 316.617188 C 533.757812 317.058594 533.140625 317.273438 532.523438 317.273438 " fill-opacity="1" fill-rule="nonzero"/><path fill="#1b191b" d="M 446.621094 317.273438 C 446.003906 317.273438 445.382812 317.058594 444.882812 316.617188 C 443.796875 315.65625 443.695312 314 444.652344 312.914062 C 445.535156 311.914062 446.902344 310.519531 448.492188 308.898438 C 450.324219 307.027344 452.402344 304.910156 454.019531 303.097656 C 454.980469 302.015625 456.640625 301.917969 457.722656 302.882812 C 458.804688 303.847656 458.902344 305.507812 457.9375 306.589844 C 456.238281 308.492188 454.113281 310.660156 452.238281 312.574219 C 450.769531 314.074219 449.378906 315.488281 448.589844 316.386719 C 448.070312 316.972656 447.347656 317.273438 446.621094 317.273438 " fill-opacity="1" fill-rule="nonzero"/><path fill="#1b191b" d="M 397.414062 274.773438 C 397.066406 274.773438 396.710938 274.707031 396.371094 274.558594 L 381.492188 268.132812 C 380.160156 267.558594 379.546875 266.015625 380.121094 264.683594 C 380.695312 263.355469 382.242188 262.746094 383.574219 263.316406 L 398.453125 269.738281 C 399.785156 270.3125 400.398438 271.859375 399.824219 273.191406 C 399.394531 274.179688 398.425781 274.773438 397.414062 274.773438 " fill-opacity="1" fill-rule="nonzero"/><path fill="#1b191b" d="M 523.164062 268.457031 C 522.542969 268.457031 521.921875 268.238281 521.417969 267.792969 C 520.335938 266.828125 520.242188 265.167969 521.207031 264.085938 C 522.90625 262.179688 525.03125 260.011719 526.90625 258.101562 C 528.375 256.601562 529.765625 255.183594 530.554688 254.289062 C 531.511719 253.203125 533.171875 253.097656 534.261719 254.058594 C 535.347656 255.019531 535.449219 256.675781 534.488281 257.761719 C 533.609375 258.761719 532.238281 260.15625 530.65625 261.773438 C 528.820312 263.644531 526.742188 265.765625 525.125 267.578125 C 524.605469 268.164062 523.886719 268.457031 523.164062 268.457031 " fill-opacity="1" fill-rule="nonzero"/><path fill="#1b191b" d="M 455.976562 268.457031 C 455.253906 268.457031 454.539062 268.164062 454.019531 267.578125 C 452.402344 265.765625 450.324219 263.648438 448.492188 261.78125 C 446.90625 260.160156 445.535156 258.761719 444.652344 257.761719 C 443.695312 256.675781 443.796875 255.019531 444.886719 254.058594 C 445.96875 253.097656 447.628906 253.203125 448.589844 254.289062 C 449.378906 255.1875 450.769531 256.605469 452.242188 258.105469 C 454.117188 260.015625 456.238281 262.183594 457.9375 264.085938 C 458.902344 265.167969 458.804688 266.828125 457.722656 267.792969 C 457.222656 268.238281 456.597656 268.457031 455.976562 268.457031 " fill-opacity="1" fill-rule="nonzero"/><path fill="#1b191b" d="M 373.742188 286.949219 L 373.675781 286.945312 L 353.214844 286.4375 C 351.765625 286.402344 350.621094 285.199219 350.65625 283.75 C 350.691406 282.300781 351.882812 281.15625 353.34375 281.191406 L 373.804688 281.699219 C 375.253906 281.738281 376.398438 282.941406 376.363281 284.386719 C 376.328125 285.816406 375.160156 286.949219 373.742188 286.949219 " fill-opacity="1" fill-rule="nonzero"/><path fill="#1b191b" d="M 605.402344 286.949219 C 603.980469 286.949219 602.8125 285.816406 602.777344 284.386719 C 602.742188 282.941406 603.890625 281.738281 605.335938 281.699219 L 625.796875 281.191406 C 627.210938 281.15625 628.449219 282.300781 628.488281 283.75 C 628.523438 285.199219 627.378906 286.402344 625.929688 286.4375 L 605.46875 286.945312 L 605.402344 286.949219 " fill-opacity="1" fill-rule="nonzero"/><path fill="#ffffff" d="M 376.105469 285.339844 C 376.105469 295.050781 426.90625 302.921875 489.570312 302.921875 C 552.238281 302.921875 603.035156 295.050781 603.035156 285.339844 C 603.035156 275.625 552.238281 267.753906 489.570312 267.753906 C 426.90625 267.753906 376.105469 275.625 376.105469 285.339844 " fill-opacity="1" fill-rule="nonzero"/><path fill="#1b191b" d="M 489.570312 260.40625 C 458.898438 260.40625 430.003906 262.265625 408.214844 265.644531 C 397.316406 267.332031 388.660156 269.332031 382.496094 271.59375 C 379.097656 272.839844 368.757812 276.625 368.757812 285.339844 C 368.757812 294.046875 379.097656 297.835938 382.496094 299.082031 C 388.660156 301.34375 397.316406 303.34375 408.214844 305.03125 C 430.003906 308.410156 458.898438 310.269531 489.570312 310.269531 C 520.246094 310.269531 549.136719 308.410156 570.929688 305.03125 C 581.828125 303.34375 590.480469 301.34375 596.648438 299.082031 C 600.046875 297.835938 610.382812 294.046875 610.382812 285.339844 C 610.382812 276.625 600.046875 272.839844 596.648438 271.59375 C 590.480469 269.332031 581.828125 267.332031 570.929688 265.644531 C 549.136719 262.265625 520.246094 260.40625 489.570312 260.40625 Z M 489.570312 267.753906 C 552.238281 267.753906 603.035156 275.625 603.035156 285.339844 C 603.035156 295.050781 552.238281 302.921875 489.570312 302.921875 C 426.90625 302.921875 376.105469 295.050781 376.105469 285.339844 C 376.105469 275.625 426.90625 267.753906 489.570312 267.753906 " fill-opacity="1" fill-rule="nonzero"/><path fill="#ffffff" d="M 550.863281 202.644531 C 476.484375 195.601562 414.953125 202.953125 413.425781 219.058594 L 409.453125 261.027344 C 407.925781 277.132812 466.984375 295.902344 541.363281 302.945312 C 615.742188 309.984375 677.277344 302.636719 678.800781 286.527344 L 682.773438 244.5625 C 684.300781 228.457031 625.242188 209.6875 550.863281 202.644531 " fill-opacity="1" fill-rule="nonzero"/><path fill="#ffffff" d="M 440.515625 242.117188 C 438.890625 256.085938 437.265625 270.050781 435.640625 284.019531 C 444.753906 286.773438 454.320312 289.4375 464.332031 291.945312 C 475.296875 294.691406 485.886719 297.035156 496.046875 299.023438 C 497.605469 285.425781 499.167969 271.824219 500.730469 258.226562 C 491.640625 256.746094 481.757812 254.722656 471.261719 251.953125 C 459.953125 248.972656 449.683594 245.582031 440.515625 242.117188 " fill-opacity="1" fill-rule="nonzero"/><path fill="#ffffff" d="M 589.996094 267.105469 C 588.785156 280.460938 587.582031 293.820312 586.371094 307.179688 C 598.542969 307.972656 612.171875 308.128906 626.972656 307.121094 C 635.28125 306.550781 643.132812 305.671875 650.480469 304.589844 C 651.085938 290.4375 651.6875 276.285156 652.292969 262.132812 C 644.246094 263.75 635.371094 265.140625 625.761719 266.074219 C 612.628906 267.347656 600.609375 267.519531 589.996094 267.105469 " fill-opacity="1" fill-rule="nonzero"/><g clip-path="url(#209fb41758)"><path fill="#1b191b" d="M 496.734375 192.625 C 472.296875 192.625 451.265625 194.433594 435.910156 197.859375 C 416.761719 202.132812 407.011719 208.839844 406.109375 218.367188 L 402.136719 260.335938 C 400.988281 272.433594 414.917969 282.917969 444.71875 292.386719 C 470.117188 300.457031 504.191406 306.804688 540.671875 310.261719 C 559.636719 312.054688 578.082031 312.964844 595.496094 312.964844 C 619.929688 312.964844 640.960938 311.152344 656.316406 307.726562 C 675.46875 303.457031 685.214844 296.75 686.117188 287.222656 L 690.09375 245.253906 C 691.238281 233.15625 677.308594 222.671875 647.507812 213.203125 C 622.109375 205.128906 588.035156 198.785156 551.554688 195.328125 C 532.589844 193.535156 514.144531 192.625 496.734375 192.625 Z M 496.734375 199.972656 C 513.382812 199.972656 531.703125 200.832031 550.863281 202.644531 C 625.242188 209.6875 684.300781 228.453125 682.773438 244.5625 L 678.800781 286.53125 C 677.667969 298.488281 643.476562 305.617188 595.496094 305.617188 C 578.839844 305.617188 560.527344 304.757812 541.363281 302.945312 C 466.984375 295.902344 407.925781 277.136719 409.453125 261.027344 L 413.425781 219.058594 C 414.558594 207.105469 448.753906 199.972656 496.734375 199.972656 " fill-opacity="1" fill-rule="nonzero"/></g><path fill="#1b191b" d="M 434.574219 286.667969 C 434.46875 286.667969 434.363281 286.664062 434.257812 286.652344 C 432.234375 286.480469 430.734375 284.703125 430.90625 282.679688 C 431.546875 275.179688 434.019531 250.167969 435.210938 241.460938 C 435.488281 239.449219 437.339844 238.046875 439.351562 238.320312 C 441.363281 238.59375 442.769531 240.445312 442.492188 242.457031 C 441.316406 251.054688 438.863281 275.855469 438.230469 283.304688 C 438.066406 285.21875 436.460938 286.667969 434.574219 286.667969 " fill-opacity="1" fill-rule="nonzero"/><path fill="#1b191b" d="M 650.011719 307.066406 C 649.882812 307.066406 649.753906 307.058594 649.625 307.042969 C 647.605469 306.835938 646.140625 305.027344 646.351562 303.007812 C 647.128906 295.582031 649.375 270.769531 649.832031 262.089844 C 649.941406 260.0625 651.703125 258.503906 653.695312 258.613281 C 655.722656 258.722656 657.28125 260.453125 657.171875 262.476562 C 656.707031 271.265625 654.441406 296.289062 653.660156 303.773438 C 653.464844 305.660156 651.867188 307.066406 650.011719 307.066406 " fill-opacity="1" fill-rule="nonzero"/><path fill="#1b191b" d="M 497.851562 302.28125 C 497.742188 302.28125 497.628906 302.277344 497.515625 302.265625 C 495.496094 302.082031 494.007812 300.296875 494.1875 298.273438 C 494.867188 290.808594 497.273438 265.867188 498.246094 257.144531 C 498.472656 255.128906 500.285156 253.671875 502.304688 253.902344 C 504.320312 254.125 505.773438 255.945312 505.550781 257.960938 C 504.578125 266.636719 502.183594 291.492188 501.507812 298.9375 C 501.335938 300.847656 499.730469 302.28125 497.851562 302.28125 " fill-opacity="1" fill-rule="nonzero"/><path fill="#1b191b" d="M 584.925781 310.527344 C 584.808594 310.527344 584.683594 310.519531 584.5625 310.507812 C 582.542969 310.308594 581.066406 308.511719 581.265625 306.492188 C 582 299.046875 584.3125 274.179688 584.988281 265.480469 C 585.144531 263.460938 586.890625 261.945312 588.9375 262.101562 C 590.960938 262.261719 592.472656 264.027344 592.316406 266.050781 C 591.636719 274.796875 589.316406 299.746094 588.582031 307.210938 C 588.390625 309.109375 586.792969 310.527344 584.925781 310.527344 " fill-opacity="1" fill-rule="nonzero"/><path fill="#ffffff" d="M 413.425781 219.058594 C 411.902344 235.167969 470.960938 253.933594 545.339844 260.976562 C 619.71875 268.015625 681.25 260.671875 682.773438 244.5625 C 684.300781 228.457031 625.242188 209.6875 550.863281 202.644531 C 476.484375 195.601562 414.953125 202.953125 413.425781 219.058594 " fill-opacity="1" fill-rule="nonzero"/><path fill="#ffffff" d="M 455.984375 236.582031 C 451.296875 238.289062 446.601562 239.996094 441.914062 241.703125 C 451.132812 244.761719 460.980469 247.730469 471.425781 250.5 C 482.046875 253.308594 492.226562 255.628906 501.898438 257.550781 C 504.953125 254.375 508.011719 251.199219 511.066406 248.023438 C 501.515625 246.6875 491.386719 244.9375 480.773438 242.664062 C 472.050781 240.800781 463.78125 238.742188 455.984375 236.582031 " fill-opacity="1" fill-rule="nonzero"/><path fill="#ffffff" d="M 582.339844 254.660156 C 584.957031 258.117188 587.574219 261.570312 590.191406 265.027344 C 601.539062 265.46875 614.183594 265.300781 627.875 264.066406 C 635.917969 263.34375 643.496094 262.324219 650.578125 261.121094 C 646.585938 258.625 642.59375 256.125 638.605469 253.628906 C 630.667969 254.246094 622.351562 254.691406 613.683594 254.910156 C 602.683594 255.1875 592.214844 255.066406 582.339844 254.660156 " fill-opacity="1" fill-rule="nonzero"/><path fill="#ffffff" d="M 641.046875 227.839844 C 645.496094 226.257812 653.40625 224.101562 657.859375 222.523438 C 661.445312 223.253906 668.109375 225.113281 674.667969 230.34375 C 679.683594 234.339844 682.683594 238.746094 684.351562 241.675781 C 677.769531 241.464844 670.171875 241.164062 663.585938 240.953125 C 662.585938 238.929688 659.644531 235.9375 655.457031 233.503906 C 649.023438 229.761719 643.578125 228.101562 641.046875 227.839844 " fill-opacity="1" fill-rule="nonzero"/><path fill="#ffffff" d="M 508.554688 198.027344 C 510.949219 201.421875 513.710938 205.789062 516.105469 209.1875 C 526.839844 209.71875 540.074219 210.582031 551.703125 211.734375 C 562.363281 212.792969 573.570312 214.128906 583.382812 215.558594 C 586.617188 212.523438 590.480469 208.785156 593.714844 205.75 C 580.996094 203.128906 565.804688 201.410156 551.949219 200.152344 C 537.972656 198.886719 521.78125 198.78125 508.554688 198.027344 " fill-opacity="1" fill-rule="nonzero"/><path fill="#ffffff" d="M 442.800781 202.726562 C 439.246094 202.664062 432.457031 203.027344 425.019531 206.648438 C 418.816406 209.667969 414.773438 213.683594 412.558594 216.25 C 419.03125 217.261719 425.503906 218.269531 431.976562 219.277344 C 433.832031 217.394531 437.058594 214.582031 441.792969 212.480469 C 446.898438 210.21875 451.480469 209.792969 454.195312 209.75 C 450.398438 207.410156 446.597656 205.070312 442.800781 202.726562 " fill-opacity="1" fill-rule="nonzero"/><g clip-path="url(#96071e34ab)"><path fill="#1b191b" d="M 496.734375 192.625 C 472.296875 192.625 451.265625 194.433594 435.910156 197.859375 C 416.761719 202.132812 407.011719 208.839844 406.109375 218.367188 C 404.964844 230.464844 418.894531 240.949219 448.691406 250.421875 C 474.089844 258.488281 508.167969 264.835938 544.648438 268.292969 C 563.613281 270.085938 582.058594 270.996094 599.46875 270.996094 C 623.90625 270.996094 644.9375 269.1875 660.289062 265.761719 C 679.441406 261.488281 689.191406 254.78125 690.09375 245.253906 C 691.238281 233.15625 677.308594 222.671875 647.507812 213.203125 C 622.109375 205.128906 588.035156 198.785156 551.554688 195.328125 C 532.589844 193.535156 514.144531 192.625 496.734375 192.625 Z M 496.734375 199.972656 C 513.382812 199.972656 531.703125 200.832031 550.863281 202.644531 C 625.242188 209.6875 684.300781 228.453125 682.773438 244.5625 C 681.644531 256.519531 647.449219 263.648438 599.46875 263.648438 C 582.816406 263.648438 564.5 262.792969 545.339844 260.976562 C 470.960938 253.933594 411.898438 235.167969 413.425781 219.058594 C 414.558594 207.105469 448.753906 199.972656 496.734375 199.972656 " fill-opacity="1" fill-rule="nonzero"/></g><path fill="#1b191b" d="M 439.691406 243.871094 C 438.582031 243.871094 437.554688 243.167969 437.195312 242.054688 C 436.746094 240.675781 437.503906 239.195312 438.882812 238.75 L 454.300781 233.753906 C 455.679688 233.3125 457.160156 234.0625 457.605469 235.445312 C 458.054688 236.820312 457.300781 238.300781 455.917969 238.75 L 440.5 243.742188 C 440.230469 243.828125 439.960938 243.871094 439.691406 243.871094 " fill-opacity="1" fill-rule="nonzero"/><path fill="#1b191b" d="M 652.8125 264.574219 C 652.300781 264.574219 651.78125 264.449219 651.296875 264.183594 L 637.089844 256.386719 C 635.566406 255.550781 635.007812 253.636719 635.84375 252.109375 C 636.679688 250.585938 638.59375 250.027344 640.121094 250.867188 L 654.328125 258.664062 C 655.855469 259.5 656.414062 261.414062 655.574219 262.941406 C 655.003906 263.984375 653.921875 264.574219 652.8125 264.574219 " fill-opacity="1" fill-rule="nonzero"/><path fill="#1b191b" d="M 588.101562 267.664062 C 587.289062 267.664062 586.488281 267.289062 585.976562 266.582031 C 585.269531 265.617188 584.019531 264.070312 582.695312 262.433594 C 581.007812 260.359375 579.101562 258.003906 577.589844 255.949219 C 576.734375 254.78125 576.984375 253.140625 578.152344 252.28125 C 579.320312 251.421875 580.964844 251.675781 581.820312 252.839844 C 583.257812 254.796875 585.125 257.097656 586.773438 259.132812 C 588.203125 260.894531 589.4375 262.417969 590.222656 263.496094 C 591.070312 264.667969 590.8125 266.308594 589.640625 267.164062 C 589.175781 267.5 588.636719 267.664062 588.101562 267.664062 " fill-opacity="1" fill-rule="nonzero"/><path fill="#1b191b" d="M 502.582031 259.566406 C 501.878906 259.566406 501.183594 259.289062 500.664062 258.738281 C 499.671875 257.679688 499.726562 256.019531 500.785156 255.027344 C 501.753906 254.117188 503.246094 252.855469 504.976562 251.398438 C 506.980469 249.707031 509.253906 247.792969 511.03125 246.140625 C 512.09375 245.152344 513.753906 245.214844 514.742188 246.273438 C 515.726562 247.335938 515.667969 249 514.605469 249.984375 C 512.734375 251.722656 510.410156 253.683594 508.363281 255.410156 C 506.757812 256.761719 505.246094 258.042969 504.375 258.855469 C 503.867188 259.332031 503.222656 259.566406 502.582031 259.566406 " fill-opacity="1" fill-rule="nonzero"/><path fill="#1b191b" d="M 457.597656 212.621094 C 457.167969 212.621094 456.734375 212.515625 456.335938 212.292969 L 442.125 204.496094 C 440.855469 203.796875 440.390625 202.203125 441.089844 200.933594 C 441.785156 199.660156 443.382812 199.199219 444.652344 199.894531 L 458.859375 207.695312 C 460.132812 208.390625 460.597656 209.984375 459.898438 211.257812 C 459.421875 212.128906 458.523438 212.621094 457.597656 212.621094 " fill-opacity="1" fill-rule="nonzero"/><path fill="#1b191b" d="M 641.089844 229.992188 C 639.984375 229.992188 638.953125 229.285156 638.597656 228.179688 C 638.148438 226.796875 638.90625 225.320312 640.285156 224.871094 L 655.703125 219.875 C 657.078125 219.433594 658.5625 220.1875 659.007812 221.566406 C 659.453125 222.945312 658.699219 224.425781 657.320312 224.871094 L 641.902344 229.867188 C 641.632812 229.953125 641.359375 229.992188 641.089844 229.992188 " fill-opacity="1" fill-rule="nonzero"/><path fill="#1b191b" d="M 583.386719 218.183594 C 582.683594 218.183594 581.980469 217.902344 581.460938 217.34375 C 580.476562 216.28125 580.539062 214.621094 581.601562 213.632812 C 583.472656 211.898438 585.792969 209.9375 587.839844 208.210938 C 589.441406 206.855469 590.957031 205.578125 591.828125 204.765625 C 592.886719 203.773438 594.546875 203.824219 595.539062 204.882812 C 596.53125 205.941406 596.476562 207.601562 595.417969 208.59375 C 594.449219 209.5 592.957031 210.765625 591.226562 212.222656 C 589.21875 213.914062 586.953125 215.828125 585.171875 217.480469 C 584.667969 217.949219 584.023438 218.183594 583.386719 218.183594 " fill-opacity="1" fill-rule="nonzero"/><path fill="#1b191b" d="M 516.5 211.851562 C 515.691406 211.851562 514.894531 211.480469 514.382812 210.777344 C 512.945312 208.824219 511.078125 206.523438 509.429688 204.488281 C 508.003906 202.726562 506.765625 201.203125 505.984375 200.121094 C 505.132812 198.949219 505.390625 197.308594 506.5625 196.457031 C 507.738281 195.605469 509.375 195.863281 510.230469 197.039062 C 510.933594 198.003906 512.1875 199.550781 513.507812 201.183594 C 515.191406 203.261719 517.101562 205.617188 518.613281 207.671875 C 519.46875 208.839844 519.21875 210.480469 518.050781 211.339844 C 517.582031 211.683594 517.039062 211.851562 516.5 211.851562 " fill-opacity="1" fill-rule="nonzero"/><path fill="#1b191b" d="M 432.882812 222.507812 C 432.78125 222.507812 432.675781 222.5 432.570312 222.488281 L 412.25 220.054688 C 410.808594 219.878906 409.78125 218.578125 409.953125 217.132812 C 410.125 215.699219 411.433594 214.671875 412.871094 214.839844 L 433.195312 217.277344 C 434.632812 217.449219 435.660156 218.753906 435.488281 220.195312 C 435.328125 221.527344 434.195312 222.507812 432.882812 222.507812 " fill-opacity="1" fill-rule="nonzero"/><path fill="#1b191b" d="M 683.933594 245.769531 L 683.746094 245.761719 L 663.328125 244.339844 C 661.886719 244.238281 660.792969 242.984375 660.894531 241.535156 C 660.996094 240.09375 662.253906 239.007812 663.695312 239.101562 L 684.113281 240.523438 C 685.558594 240.625 686.648438 241.878906 686.546875 243.324219 C 686.453125 244.710938 685.296875 245.769531 683.933594 245.769531 " fill-opacity="1" fill-rule="nonzero"/><path fill="#1b191b" d="M 490.707031 203.941406 C 473.925781 203.941406 459.71875 204.859375 449.621094 206.585938 C 439.929688 208.246094 428.6875 211.316406 427.824219 220.417969 C 427.003906 229.09375 436.941406 233.839844 440.207031 235.398438 C 446.132812 238.230469 454.558594 241.039062 465.25 243.746094 C 486.625 249.164062 515.214844 253.738281 545.753906 256.628906 C 566.785156 258.621094 587.445312 259.671875 605.496094 259.671875 C 622.277344 259.671875 636.484375 258.757812 646.582031 257.03125 C 656.277344 255.371094 667.519531 252.296875 668.378906 243.195312 C 669.199219 234.523438 659.265625 229.78125 656 228.21875 C 650.070312 225.390625 641.648438 222.578125 630.957031 219.871094 C 609.582031 214.453125 580.988281 209.878906 550.453125 206.988281 C 529.417969 204.996094 508.757812 203.941406 490.707031 203.941406 Z M 490.707031 211.292969 C 507.992188 211.292969 528.21875 212.261719 549.761719 214.300781 C 612.148438 220.207031 661.976562 232.835938 661.0625 242.503906 C 660.464844 248.832031 638.261719 252.324219 605.496094 252.324219 C 588.210938 252.324219 567.988281 251.355469 546.445312 249.3125 C 484.058594 243.40625 434.226562 230.78125 435.144531 221.113281 C 435.742188 214.785156 457.941406 211.292969 490.707031 211.292969 " fill-opacity="1" fill-rule="nonzero"/></svg>