<svg xmlns="http://www.w3.org/2000/svg" xmlns:xlink="http://www.w3.org/1999/xlink" width="1366" zoomAndPan="magnify" viewBox="0 0 1024.5 576" height="768" preserveAspectRatio="xMidYMid meet" version="1.0"><defs><clipPath id="69a204e79d"><path d="M 328.632812 158 L 616 158 L 616 442.417969 L 328.632812 442.417969 Z M 328.632812 158 " clip-rule="nonzero"/></clipPath></defs><g clip-path="url(#69a204e79d)"><path fill="#ffffff" d="M 348.523438 423.042969 C 353.078125 427.59375 359.148438 430.023438 365.558594 429.960938 C 371.988281 429.867188 377.960938 427.238281 382.375 422.5625 L 593.308594 199.101562 L 570.386719 176.175781 L 348.84375 389.355469 C 344.242188 393.785156 341.675781 399.742188 341.613281 406.128906 C 341.550781 412.519531 344.007812 418.527344 348.523438 423.042969 Z M 365.199219 442.695312 C 355.5 442.695312 346.402344 438.921875 339.519531 432.046875 C 332.566406 425.089844 328.789062 415.84375 328.878906 406.011719 C 328.976562 396.175781 332.925781 387 340.011719 380.179688 L 570.558594 158.34375 L 604.882812 192.667969 L 615.988281 193.625 L 391.636719 431.304688 C 384.835938 438.503906 375.636719 442.546875 365.742188 442.6875 C 365.5625 442.691406 365.378906 442.695312 365.199219 442.695312 " fill-opacity="1" fill-rule="nonzero"/></g><path fill="#ffffff" d="M 628.382812 216.164062 L 650.957031 238.738281 C 651.679688 239.464844 652.640625 239.863281 653.667969 239.863281 C 654.691406 239.863281 655.652344 239.464844 656.375 238.738281 L 692.003906 203.109375 C 693.496094 201.617188 693.496094 199.1875 692.003906 197.691406 L 669.429688 175.121094 C 664.085938 173.308594 648.496094 166.796875 646.003906 151.691406 L 614.394531 120.082031 L 599.25 117.953125 L 597.71875 116.332031 C 597.613281 116.222656 586.070312 104.253906 568.246094 97.984375 C 546.921875 90.476562 525.910156 94.007812 505.699219 108.46875 C 521.363281 110.164062 543.535156 118.425781 569.707031 144.597656 L 571.207031 146.101562 L 573.34375 161.125 L 604.964844 192.746094 C 620.046875 195.234375 626.574219 210.824219 628.382812 216.164062 Z M 653.667969 252.585938 C 649.421875 252.585938 645.179688 250.972656 641.953125 247.742188 L 617.0625 222.851562 L 616.621094 221.195312 C 616.585938 221.066406 612.351562 206.011719 601.816406 205.183594 L 599.144531 204.929688 L 561.335938 167.125 L 559.207031 152.117188 C 531.550781 125.074219 509.929688 120.84375 499.125 120.84375 C 498.957031 120.84375 498.792969 120.84375 498.628906 120.84375 C 494.28125 120.917969 490.484375 118.289062 488.984375 114.191406 C 487.488281 110.097656 488.695312 105.667969 492.058594 102.898438 C 524.128906 76.5625 553.765625 79.253906 572.980469 86.152344 C 589.566406 92.105469 601.164062 102.03125 605.308594 105.945312 L 620.386719 108.066406 L 658.277344 145.957031 L 658.425781 148.363281 C 659.085938 158.992188 674.304688 163.3125 674.457031 163.355469 L 676.113281 163.792969 L 701.007812 188.6875 C 707.464844 195.148438 707.464844 205.65625 701.007812 212.117188 L 665.378906 247.742188 C 662.148438 250.972656 657.910156 252.585938 653.667969 252.585938 " fill-opacity="1" fill-rule="nonzero"/></svg>