<svg xmlns="http://www.w3.org/2000/svg" xmlns:xlink="http://www.w3.org/1999/xlink" width="500" zoomAndPan="magnify" viewBox="0 0 375 374.999991" height="500" preserveAspectRatio="xMidYMid meet" version="1.0"><defs><clipPath id="9e8ad018b3"><path d="M 130 183 L 245 183 L 245 256.875 L 130 256.875 Z M 130 183 " clip-rule="nonzero"/></clipPath><clipPath id="4d86441633"><path d="M 113 118.125 L 262 118.125 L 262 180 L 113 180 Z M 113 118.125 " clip-rule="nonzero"/></clipPath></defs><g clip-path="url(#9e8ad018b3)"><path fill="#000000" d="M 241.863281 256.886719 L 133.078125 256.886719 C 131.433594 256.886719 130.101562 255.554688 130.101562 253.910156 L 130.101562 186.113281 C 130.101562 184.46875 131.433594 183.132812 133.078125 183.132812 C 134.722656 183.132812 136.054688 184.46875 136.054688 186.113281 L 136.054688 250.933594 L 238.886719 250.933594 L 238.886719 186.113281 C 238.886719 184.46875 240.21875 183.132812 241.863281 183.132812 C 243.507812 183.132812 244.839844 184.46875 244.839844 186.113281 L 244.839844 253.910156 C 244.839844 255.554688 243.507812 256.886719 241.863281 256.886719 " fill-opacity="1" fill-rule="nonzero"/></g><g clip-path="url(#4d86441633)"><path fill="#000000" d="M 258.925781 179.765625 C 258.285156 179.765625 257.640625 179.566406 257.097656 179.140625 L 187.46875 125.09375 L 117.84375 179.140625 C 116.539062 180.148438 114.671875 179.914062 113.660156 178.617188 C 112.65625 177.316406 112.890625 175.445312 114.1875 174.4375 L 185.644531 118.972656 C 186.722656 118.140625 188.21875 118.140625 189.296875 118.972656 L 260.753906 174.4375 C 262.050781 175.445312 262.285156 177.316406 261.277344 178.617188 C 260.695312 179.371094 259.808594 179.765625 258.925781 179.765625 " fill-opacity="1" fill-rule="nonzero"/></g></svg>