<svg xmlns="http://www.w3.org/2000/svg" xmlns:xlink="http://www.w3.org/1999/xlink" width="1366" zoomAndPan="magnify" viewBox="0 0 1024.5 576" height="768" preserveAspectRatio="xMidYMid meet" version="1.0"><defs><clipPath id="7181c45daa"><path d="M 452 172.855469 L 572 172.855469 L 572 292 L 452 292 Z M 452 172.855469 " clip-rule="nonzero"/></clipPath><clipPath id="df62400d7e"><path d="M 415.421875 306 L 608.828125 306 L 608.828125 402.992188 L 415.421875 402.992188 Z M 415.421875 306 " clip-rule="nonzero"/></clipPath></defs><g clip-path="url(#7181c45daa)"><path fill="#000000" d="M 512.125 291.636719 C 479.484375 291.636719 452.621094 264.824219 452.621094 232.246094 C 452.621094 199.667969 479.484375 172.855469 512.125 172.855469 C 544.769531 172.855469 571.632812 199.667969 571.632812 232.246094 C 571.59375 264.816406 544.757812 291.601562 512.125 291.636719 Z M 512.125 180.28125 C 483.5625 180.28125 460.058594 203.738281 460.058594 232.246094 C 460.058594 260.753906 483.5625 284.214844 512.125 284.214844 C 540.6875 284.214844 564.195312 260.753906 564.195312 232.246094 C 564.160156 203.75 540.679688 180.3125 512.125 180.28125 Z M 512.125 180.28125 " fill-opacity="1" fill-rule="nonzero"/></g><g clip-path="url(#df62400d7e)"><path fill="#000000" d="M 605.105469 402.992188 L 419.148438 402.992188 C 417.105469 402.992188 415.429688 401.320312 415.429688 399.28125 C 415.484375 348.394531 457.421875 306.539062 508.40625 306.484375 L 515.84375 306.484375 C 566.832031 306.539062 608.765625 348.394531 608.824219 399.28125 C 608.824219 401.320312 607.144531 402.992188 605.105469 402.992188 Z M 422.945312 395.570312 L 601.304688 395.570312 C 599.273438 350.199219 561.347656 313.964844 515.84375 313.910156 L 508.40625 313.910156 C 462.902344 313.964844 424.980469 350.199219 422.949219 395.570312 Z M 422.945312 395.570312 " fill-opacity="1" fill-rule="nonzero"/></g></svg>