<svg xmlns="http://www.w3.org/2000/svg" xmlns:xlink="http://www.w3.org/1999/xlink" width="500" zoomAndPan="magnify" viewBox="0 0 375 374.999991" height="500" preserveAspectRatio="xMidYMid meet" version="1.0"><defs><clipPath id="0d43846f8a"><path d="M 122 114.84375 L 258 114.84375 L 258 250 L 122 250 Z M 122 114.84375 " clip-rule="nonzero"/></clipPath></defs><g clip-path="url(#0d43846f8a)"><path fill="#000000" d="M 242.371094 130.171875 C 232.582031 120.367188 219.566406 114.976562 205.730469 114.976562 C 191.882812 114.976562 178.871094 120.367188 169.078125 130.171875 C 159.285156 139.96875 153.890625 153.007812 153.890625 166.875 C 153.890625 178.925781 157.980469 190.339844 165.476562 199.5625 L 155.472656 209.582031 L 153.195312 207.300781 L 122.84375 237.679688 L 134.992188 249.84375 L 165.332031 219.464844 L 163.0625 217.179688 L 173.066406 207.164062 C 182.277344 214.679688 193.679688 218.765625 205.714844 218.765625 C 219.5625 218.765625 232.578125 213.367188 242.371094 203.558594 C 262.582031 183.328125 262.582031 150.40625 242.371094 130.171875 Z M 236.773438 197.949219 C 228.476562 206.257812 217.453125 210.828125 205.714844 210.828125 C 193.988281 210.828125 182.964844 206.253906 174.667969 197.949219 C 166.378906 189.652344 161.8125 178.613281 161.8125 166.867188 C 161.8125 155.125 166.378906 144.078125 174.671875 135.777344 C 182.960938 127.472656 193.980469 122.902344 205.722656 122.902344 C 217.449219 122.902344 228.472656 127.476562 236.769531 135.777344 C 253.886719 152.925781 253.886719 180.820312 236.773438 197.949219 Z M 236.773438 197.949219 " fill-opacity="1" fill-rule="nonzero"/></g><path fill="#000000" d="M 205.722656 128.816406 C 195.566406 128.816406 186.03125 132.78125 178.851562 139.960938 C 177.769531 141.042969 177.769531 142.804688 178.851562 143.890625 C 179.933594 144.972656 181.695312 144.972656 182.773438 143.890625 C 188.90625 137.75 197.054688 134.375 205.722656 134.375 C 214.394531 134.375 222.539062 137.75 228.675781 143.890625 C 229.210938 144.433594 229.921875 144.699219 230.640625 144.699219 C 231.34375 144.699219 232.054688 144.433594 232.605469 143.890625 C 233.683594 142.804688 233.683594 141.042969 232.605469 139.960938 C 225.417969 132.78125 215.875 128.816406 205.722656 128.816406 Z M 205.722656 128.816406 " fill-opacity="1" fill-rule="nonzero"/><path fill="#000000" d="M 115.726562 244.816406 C 112.625 247.910156 112.625 252.9375 115.726562 256.027344 L 116.667969 256.980469 C 119.765625 260.074219 124.777344 260.074219 127.875 256.980469 L 132.046875 252.804688 L 119.894531 240.640625 Z M 115.726562 244.816406 " fill-opacity="1" fill-rule="nonzero"/></svg>