<svg xmlns="http://www.w3.org/2000/svg" xmlns:xlink="http://www.w3.org/1999/xlink" width="1366" zoomAndPan="magnify" viewBox="0 0 1024.5 576" height="768" preserveAspectRatio="xMidYMid meet" version="1.0"><defs><clipPath id="3170a6b2f3"><path d="M 405 159.613281 L 597 159.613281 L 597 389.75 L 405 389.75 Z M 405 159.613281 " clip-rule="nonzero"/></clipPath></defs><g clip-path="url(#3170a6b2f3)"><path fill="#000000" d="M 508.226562 234.082031 L 508.226562 253.578125 C 508.226562 254.582031 508.753906 255.441406 509.648438 255.894531 C 510.542969 256.347656 511.546875 256.265625 512.351562 255.671875 L 570.363281 213.074219 C 571.027344 212.585938 571.394531 211.890625 571.421875 211.066406 C 571.445312 210.242188 571.125 209.523438 570.492188 208.992188 L 512.484375 160.398438 C 511.691406 159.738281 510.65625 159.601562 509.722656 160.039062 C 508.789062 160.476562 508.226562 161.355469 508.226562 162.390625 L 508.226562 180.503906 C 417.78125 180.503906 388.117188 247.050781 414.394531 294.378906 C 428.929688 237.730469 476.394531 234.082031 508.226562 234.082031 Z M 493.65625 315.234375 C 525.492188 315.234375 572.953125 311.585938 587.488281 254.9375 C 613.765625 302.261719 584.101562 368.8125 493.65625 368.8125 L 493.65625 386.925781 C 493.65625 387.957031 493.097656 388.839844 492.164062 389.277344 C 491.230469 389.710938 490.191406 389.578125 489.402344 388.914062 L 431.390625 340.320312 C 430.761719 339.792969 430.4375 339.070312 430.464844 338.25 C 430.492188 337.425781 430.859375 336.726562 431.523438 336.238281 L 489.535156 293.644531 C 490.339844 293.050781 491.34375 292.96875 492.238281 293.421875 C 493.132812 293.875 493.65625 294.730469 493.65625 295.734375 Z M 493.65625 315.234375 " fill-opacity="1" fill-rule="evenodd"/></g></svg>