<svg xmlns="http://www.w3.org/2000/svg" xmlns:xlink="http://www.w3.org/1999/xlink" width="500" zoomAndPan="magnify" viewBox="0 0 375 374.999991" height="500" preserveAspectRatio="xMidYMid meet" version="1.0"><defs><clipPath id="96cebcae31"><path d="M 117.539062 162 L 267.539062 162 L 267.539062 193 L 117.539062 193 Z M 117.539062 162 " clip-rule="nonzero"/></clipPath><clipPath id="dd36d7e74a"><path d="M 177 102.613281 L 208 102.613281 L 208 252.613281 L 177 252.613281 Z M 177 102.613281 " clip-rule="nonzero"/></clipPath></defs><g clip-path="url(#96cebcae31)"><path fill="#000000" d="M 260.039062 192.613281 L 125.039062 192.613281 C 120.539062 192.613281 117.539062 189.613281 117.539062 185.113281 L 117.539062 170.113281 C 117.539062 165.613281 120.539062 162.613281 125.039062 162.613281 L 260.039062 162.613281 C 264.539062 162.613281 267.539062 165.613281 267.539062 170.113281 L 267.539062 185.113281 C 267.539062 189.613281 264.539062 192.613281 260.039062 192.613281 Z M 260.039062 192.613281 " fill-opacity="1" fill-rule="nonzero"/></g><g clip-path="url(#dd36d7e74a)"><path fill="#000000" d="M 177.539062 245.113281 L 177.539062 110.113281 C 177.539062 105.613281 180.539062 102.613281 185.039062 102.613281 L 200.039062 102.613281 C 204.539062 102.613281 207.539062 105.613281 207.539062 110.113281 L 207.539062 245.113281 C 207.539062 249.613281 204.539062 252.613281 200.039062 252.613281 L 185.039062 252.613281 C 180.539062 252.613281 177.539062 249.613281 177.539062 245.113281 Z M 177.539062 245.113281 " fill-opacity="1" fill-rule="nonzero"/></g></svg>